<svg xmlns="http://www.w3.org/2000/svg" width="184.925" height="23.732" viewBox="0 0 184.925 23.732">
  <g id="Group_18" data-name="Group 18" transform="translate(-28.957 -51.379)">
    <g id="Group_10" data-name="Group 10" transform="translate(28.957 51.426)">
      <path id="Path_3" data-name="Path 3" d="M55.938,56.589v21.42a.629.629,0,0,1-.627.627H33.8a.629.629,0,0,1-.627-.627V56.589a.6.6,0,0,1,.471-.595.673.673,0,0,1,.721.313l9.784,19.067a.454.454,0,0,0,.408.25.407.407,0,0,0,.377-.25l9.816-19.067a.653.653,0,0,1,.721-.313A.638.638,0,0,1,55.938,56.589ZM43.77,77.381,34.425,59.192V77.381ZM54.684,59.192,45.339,77.381h9.345Z" transform="translate(-32.659 -55.466)" fill="#fff"/>
      <path id="Path_4" data-name="Path 4" d="M51.609,75.443H30.1A1.14,1.14,0,0,1,28.957,74.3V52.885a1.112,1.112,0,0,1,.871-1.094,1.18,1.18,0,0,1,1.266.541l9.744,18.986L50.59,52.369a1.145,1.145,0,0,1,2.158.516V74.3A1.14,1.14,0,0,1,51.609,75.443ZM30.086,52.786a.163.163,0,0,0-.035,0,.093.093,0,0,0-.071.1V74.3a.117.117,0,0,0,.116.116H51.609a.117.117,0,0,0,.115-.116V52.885a.134.134,0,0,0-.083-.1.151.151,0,0,0-.138.044L41.684,71.9a.905.905,0,0,1-.832.527.953.953,0,0,1-.845-.5l-9.8-19.1A.154.154,0,0,0,30.086,52.786ZM40.764,71.46a.148.148,0,0,0-.01.019Zm10.729,2.729H30.211V53.374L40.852,74.085,51.493,53.374Zm-9.019-1.023h8V57.6Zm-11.24,0h8l-8-15.562Z" transform="translate(-28.957 -51.762)" fill="#fff"/>
    </g>
    <g id="Group_11" data-name="Group 11" transform="translate(57.609 51.418)">
      <path id="Path_5" data-name="Path 5" d="M293.128,78.58a.834.834,0,0,1-.376-.093c-.063-.063-6.555-4.548-11.289-4.548-4.767,0-11.259,4.485-11.322,4.548a.824.824,0,0,1-.376.093.613.613,0,0,1-.534-.909L280.9,56.221a.646.646,0,0,1,1.1,0l11.665,21.45A.608.608,0,0,1,293.128,78.58Zm-1.693-2.415L281.463,57.85l-10,18.315c.6-.345,1.256-.721,1.976-1.066a14.5,14.5,0,0,1,16.024,0C290.181,75.444,290.839,75.82,291.435,76.165Z" transform="translate(-268.636 -55.403)" fill="#fff"/>
      <path id="Path_6" data-name="Path 6" d="M289.425,75.39a1.34,1.34,0,0,1-.6-.148l-.1-.068c-.373-.258-6.535-4.425-10.955-4.425-4.448,0-10.615,4.168-10.988,4.425l-.1.067a1.2,1.2,0,0,1-1.594-.44,1.074,1.074,0,0,1,.017-1.1l11.653-21.427a1.122,1.122,0,0,1,1-.573h0a1.125,1.125,0,0,1,1,.574l11.664,21.449a1.045,1.045,0,0,1,.019,1.058A1.137,1.137,0,0,1,289.425,75.39Zm-.147-1.063a.329.329,0,0,0,.147.039.121.121,0,0,0,.1-.066l-.013-.019,0-.068-11.665-21.45a.121.121,0,0,0-.1-.039h0a.119.119,0,0,0-.1.037L265.979,74.214c-.021.034-.03.051-.01.087.051.091.151.072.238.027h0c.953-.66,6.93-4.6,11.552-4.6,4.6,0,10.56,3.938,11.518,4.6Zm-22.847-.508,11.329-20.739,11.291,20.737-1.576-.911c-.627-.363-1.248-.716-1.941-1.047a14.013,14.013,0,0,0-15.571-.006c-.712.341-1.355.707-1.953,1.053Zm11.328-5.348a19.011,19.011,0,0,1,8.228,2.471q.231.11.456.225l-8.685-15.951-8.712,15.949q.227-.116.464-.23A19.021,19.021,0,0,1,277.76,68.472Z" transform="translate(-264.933 -51.702)" fill="#fff"/>
    </g>
    <g id="Group_12" data-name="Group 12" transform="translate(88.12 51.41)">
      <path id="Path_7" data-name="Path 7" d="M541.888,56.817l-7.87,12.168a1.491,1.491,0,0,0-.221.722,1.472,1.472,0,0,0,.252.814l4.39,7.025a.621.621,0,0,1-.5.972H521.065a.618.618,0,0,1-.532-.972l7.9-12.2a1.9,1.9,0,0,0,.189-.722,1.374,1.374,0,0,0-.251-.784l-4.422-7.025a.619.619,0,0,1,.534-.972h16.872a.6.6,0,0,1,.532.314A.62.62,0,0,1,541.888,56.817Zm-5.08,20.447-7.182-11.447-7.4,11.447ZM540.2,57.1H525.612l7.182,11.413Z" transform="translate(-519.922 -55.333)" fill="#fff"/>
      <path id="Path_8" data-name="Path 8" d="M534.234,75.329H517.362a1.21,1.21,0,0,1-.99-.542l-.045-.083a1.207,1.207,0,0,1,.059-1.113l7.892-12.184a1.369,1.369,0,0,0,.131-.482.857.857,0,0,0-.156-.487l-4.438-7.05a1.212,1.212,0,0,1-.067-1.134l.042-.077a1.2,1.2,0,0,1,.992-.545h16.872a1.156,1.156,0,0,1,.96,1.765l-7.868,12.164a.859.859,0,0,0,.035.987l4.389,7.026a1.161,1.161,0,0,1,.045,1.173A1.092,1.092,0,0,1,534.234,75.329ZM517.25,74.251a.185.185,0,0,0,.112.055h16.872c.047,0,.063-.014.077-.04a.141.141,0,0,0,0-.135l-4.4-7.039a1.877,1.877,0,0,1-.041-2.062l7.889-12.2a.128.128,0,0,0-.019-.117.107.107,0,0,0-.088-.058H520.781a.181.181,0,0,0-.112.054.174.174,0,0,0,.022.151l4.411,7.007a1.848,1.848,0,0,1,.33,1.056,2.341,2.341,0,0,1-.23.923l-.041.077-7.9,12.2A.156.156,0,0,0,517.25,74.251Zm16.78-.176H517.582l8.347-12.911Zm-14.568-1.023H532.18l-6.264-9.983Zm9.622-7.288-8.1-12.875h16.45Zm-6.249-11.852,6.262,9.952,6.453-9.952Z" transform="translate(-516.219 -51.632)" fill="#fff"/>
    </g>
    <g id="Group_14" data-name="Group 14" transform="translate(115.543 51.405)">
      <g id="Group_13" data-name="Group 13" transform="translate(0 0)">
        <path id="Path_9" data-name="Path 9" d="M746.695,78.451a.617.617,0,0,1-.408-.6V56.435a.613.613,0,0,1,.408-.595.627.627,0,0,1,.69.189l8.091,10.1,8.06-10.1a.627.627,0,0,1,.69-.189.64.64,0,0,1,.439.595v21.42a.644.644,0,0,1-.439.6.629.629,0,0,1-.69-.189l-8.06-10.1-8.091,10.1a.566.566,0,0,1-.471.219A.476.476,0,0,1,746.695,78.451Zm.846-20.228V76.067l7.119-8.907Zm8.718,8.937,7.151,8.907V58.223Z" transform="translate(-745.776 -55.292)" fill="#16c37b"/>
        <path id="Path_10" data-name="Path 10" d="M760.322,75.3a1.148,1.148,0,0,1-.88-.409l-7.668-9.605-7.691,9.6a1.079,1.079,0,0,1-.87.411.962.962,0,0,1-.42-.071,1.125,1.125,0,0,1-.719-1.067V52.738a1.121,1.121,0,0,1,.74-1.074,1.141,1.141,0,0,1,1.263.341l7.7,9.6,7.662-9.6a1.154,1.154,0,0,1,2.04.726V74.157a1.156,1.156,0,0,1-.768,1.074A1.11,1.11,0,0,1,760.322,75.3Zm-17.1-1.006h0Zm8.557-10.646,8.459,10.6a.117.117,0,0,0,.112.028c.022-.008.105-.046.105-.117V52.738c0-.071-.081-.106-.106-.116a.124.124,0,0,0-.117.036l-8.453,10.589-8.491-10.6a.116.116,0,0,0-.11-.03.1.1,0,0,0-.077.116V74.157a.108.108,0,0,0,.072.116h.044c.049,0,.053,0,.071-.028Zm-8.447,10.18V53.062l8.285,10.4Zm1.023-17.84V70.91l5.953-7.448Zm15.869,17.835L751.9,63.463l8.318-10.4Zm-7.007-10.361,5.984,7.453V55.983Z" transform="translate(-742.075 -51.594)" fill="#16c37b"/>
      </g>
    </g>
    <g id="Group_15" data-name="Group 15" transform="translate(139.797 51.41)">
      <path id="Path_11" data-name="Path 11" d="M946.034,67.167a11.336,11.336,0,1,1,11.32,11.352C950.988,78.174,946.034,73.47,946.034,67.167Zm1.254,0A10.082,10.082,0,1,0,957.354,57.1,10.1,10.1,0,0,0,947.288,67.167Z" transform="translate(-945.523 -55.333)" fill="#fff"/>
      <path id="Path_12" data-name="Path 12" d="M953.661,75.329c-6.765-.366-11.839-5.466-11.839-11.864a11.991,11.991,0,0,1,11.831-11.833,12.158,12.158,0,0,1,11.864,11.833A12.007,12.007,0,0,1,953.661,75.329Zm-.008-22.674a10.954,10.954,0,0,0-10.809,10.81c0,5.942,4.557,10.5,10.836,10.841a10.973,10.973,0,0,0,10.813-10.841A11.109,11.109,0,0,0,953.654,52.655Zm0,21.419a10.593,10.593,0,1,1,10.609-10.609A10.605,10.605,0,0,1,953.654,74.074Zm0-20.164a9.57,9.57,0,1,0,9.586,9.554A9.565,9.565,0,0,0,953.654,53.911Z" transform="translate(-941.822 -51.632)" fill="#fff"/>
    </g>
    <g id="Group_16" data-name="Group 16" transform="translate(168.344 51.41)">
      <path id="Path_13" data-name="Path 13" d="M1181.15,67.167a11.337,11.337,0,1,1,11.322,11.352C1186.106,78.174,1181.15,73.47,1181.15,67.167Zm1.254,0A10.083,10.083,0,1,0,1192.472,57.1,10.106,10.106,0,0,0,1182.4,67.167Z" transform="translate(-1180.638 -55.333)" fill="#fff"/>
      <path id="Path_14" data-name="Path 14" d="M1188.778,75.329c-6.766-.366-11.841-5.466-11.841-11.864a11.992,11.992,0,0,1,11.833-11.833,12.158,12.158,0,0,1,11.864,11.833A12.007,12.007,0,0,1,1188.778,75.329Zm-.008-22.674a10.955,10.955,0,0,0-10.81,10.81c0,5.942,4.558,10.5,10.837,10.841a10.973,10.973,0,0,0,10.813-10.841A11.109,11.109,0,0,0,1188.77,52.655Zm0,21.419a10.593,10.593,0,1,1,10.61-10.609A10.606,10.606,0,0,1,1188.77,74.074Zm0-20.164a9.57,9.57,0,1,0,9.587,9.554A9.566,9.566,0,0,0,1188.77,53.911Z" transform="translate(-1176.937 -51.632)" fill="#fff"/>
    </g>
    <g id="Group_17" data-name="Group 17" transform="translate(196.895 51.379)">
      <path id="Path_15" data-name="Path 15" d="M1416.92,78.3a.629.629,0,0,1-.627-.627V56.219a.629.629,0,0,1,.627-.627h8.842a.7.7,0,0,1,.534.282l5.865,10.462a.635.635,0,0,1,.063.534l-4.014,10.988a.613.613,0,0,1-.6.438Zm.627-1.254h9.627l3.762-10.266-5.52-9.93h-7.87Z" transform="translate(-1415.781 -55.08)" fill="#fff"/>
      <path id="Path_16" data-name="Path 16" d="M1423.913,75.107h-10.693a1.14,1.14,0,0,1-1.138-1.139V52.518a1.14,1.14,0,0,1,1.138-1.139h8.842a1.207,1.207,0,0,1,.932.473l.047.071,5.865,10.462a1.134,1.134,0,0,1,.1.945L1425,74.311A1.129,1.129,0,0,1,1423.913,75.107Zm-10.693-22.7a.117.117,0,0,0-.115.116v21.45a.117.117,0,0,0,.115.116h10.693a.116.116,0,0,0,.1-.052l.016-.05,4.014-10.988a.124.124,0,0,0-.022-.1l-5.845-10.427a.189.189,0,0,0-.113-.066Zm10.612,21.45h-10.5V52.633h8.682l5.78,10.4Zm-9.473-1.023h8.759l3.559-9.71-5.26-9.463h-7.058Z" transform="translate(-1412.081 -51.379)" fill="#fff"/>
    </g>
  </g>
</svg>
