<svg xmlns="http://www.w3.org/2000/svg" width="24.534" height="24.534" viewBox="0 0 24.534 24.534">
  <path id="Path_84" data-name="Path 84" d="M11.71,10.207a19,19,0,0,1-5.18.66A5.927,5.927,0,0,1,9.6,7,26.693,26.693,0,0,1,11.71,10.207ZM12.7,12.18q-.19-.429-.4-.854a20,20,0,0,1-5.933.789l-.008.151a5.881,5.881,0,0,0,1.37,3.777A9.2,9.2,0,0,1,12.7,12.18ZM8.638,16.924a5.858,5.858,0,0,0,5.749.855,23.345,23.345,0,0,0-1.216-4.449A8.035,8.035,0,0,0,8.638,16.924ZM15.87,7.591a5.818,5.818,0,0,0-5.053-1.048A27.781,27.781,0,0,1,12.9,9.786,7.241,7.241,0,0,0,15.87,7.591Zm8.663,4.676A12.267,12.267,0,1,1,12.267,0,12.267,12.267,0,0,1,24.534,12.267Zm-5.111,0a7.156,7.156,0,1,0-7.156,7.156A7.156,7.156,0,0,0,19.423,12.267Zm-5.954-1.379c.16.331.312.665.457,1a12.765,12.765,0,0,1,4.235.043,5.876,5.876,0,0,0-1.384-3.479A8.458,8.458,0,0,1,13.469,10.888Zm.934,2.179a24.468,24.468,0,0,1,1.144,4.112,5.926,5.926,0,0,0,2.553-4A11.944,11.944,0,0,0,14.4,13.067Z" fill="#16c37b"/>
</svg>
