<svg xmlns="http://www.w3.org/2000/svg" width="50" height="50" viewBox="0 0 50 50">
  <path id="Path_69" data-name="Path 69" d="M23.865,20.8a38.723,38.723,0,0,1-10.556,1.346,12.08,12.08,0,0,1,6.256-7.883A54.4,54.4,0,0,1,23.865,20.8Zm2.01,4.021q-.388-.875-.815-1.74a40.764,40.764,0,0,1-12.092,1.608L12.952,25a11.985,11.985,0,0,0,2.792,7.7A18.748,18.748,0,0,1,25.875,24.823ZM17.6,34.492a11.938,11.938,0,0,0,11.717,1.742,47.577,47.577,0,0,0-2.479-9.067A16.375,16.375,0,0,0,17.6,34.492Zm14.74-19.021a11.858,11.858,0,0,0-10.3-2.135,56.617,56.617,0,0,1,4.24,6.608A14.758,14.758,0,0,0,32.344,15.471ZM50,25A25,25,0,1,1,25,0,25,25,0,0,1,50,25ZM39.583,25A14.583,14.583,0,1,0,25,39.583,14.585,14.585,0,0,0,39.583,25ZM27.45,22.19c.327.675.635,1.356.931,2.042a26.015,26.015,0,0,1,8.631.088,11.975,11.975,0,0,0-2.821-7.09A17.238,17.238,0,0,1,27.45,22.19Zm1.9,4.442a49.867,49.867,0,0,1,2.331,8.381,12.077,12.077,0,0,0,5.2-8.144A24.341,24.341,0,0,0,29.354,26.631Z" fill="#16c37b"/>
</svg>
